<?xml version="1.0" encoding="utf-8"?>
<!-- Generator: Adobe Illustrator 24.0.0, SVG Export Plug-In . SVG Version: 6.00 Build 0)  -->
<svg version="1.1" id="Layer_1" xmlns="http://www.w3.org/2000/svg" xmlns:xlink="http://www.w3.org/1999/xlink" x="0px" y="0px"
	 viewBox="0 0 343 146" style="enable-background:new 0 0 343 146;" xml:space="preserve">
<style type="text/css">
	.st0{display:none;}
	.st1{display:inline;}
	.st2{fill-rule:evenodd;clip-rule:evenodd;fill:#353535;}
	.st3{fill-rule:evenodd;clip-rule:evenodd;fill:#C53C02;}
	.st4{fill-rule:evenodd;clip-rule:evenodd;fill:#751B00;}
	.st5{fill-rule:evenodd;clip-rule:evenodd;fill:#265A8F;}
	.st6{fill-rule:evenodd;clip-rule:evenodd;fill:#162F51;}
	.st7{fill-rule:evenodd;clip-rule:evenodd;fill:#FDEE00;}
	.st8{fill-rule:evenodd;clip-rule:evenodd;fill:#ECC700;}
	.st9{fill:#FFFFFF;}
</style>
<title>mlh-logo-color</title>
<desc>Created with Sketch.</desc>
<g id="Page-1">
	<g id="mlh-logo-color" class="st0">
		<g id="Layer_1_1_" class="st1">
			<g>
				<g id="Group" transform="translate(1.000000, 126.000000)">
					<path id="Shape" class="st2" d="M17.1,1.2c0.4,0.2,0.7,0.4,1,0.6c0.3,0.3,0.5,0.6,0.6,1c0.1,0.4,0.2,0.8,0.2,1.2v14.6
						c0,0.1,0,0.3-0.1,0.3C18.7,19,18.6,19,18.5,19h-3.6c-0.1,0-0.2,0-0.3-0.1c-0.1-0.1-0.1-0.2-0.1-0.3V5.4h-2.9v13.2
						c0,0.1,0,0.3-0.1,0.3C11.4,19,11.3,19,11.2,19H7.9c-0.1,0-0.3,0-0.3-0.1c-0.1-0.1-0.1-0.2-0.1-0.3V5.4H4.6v13.2
						c0,0.3-0.2,0.5-0.5,0.5H0.5c-0.3,0-0.5-0.2-0.5-0.5V1.5C0,1.2,0.2,1,0.5,1h15.6C16.4,0.9,16.8,1,17.1,1.2L17.1,1.2z"/>
					<path id="Shape_1_" class="st2" d="M35.2,0.9c0.4,0,0.8,0.1,1.2,0.2c0.4,0.2,0.7,0.4,1,0.6c0.3,0.3,0.5,0.6,0.6,1
						s0.2,0.8,0.2,1.2v14.6c0,0.1,0,0.3-0.1,0.3c-0.1,0.1-0.2,0.1-0.3,0.1h-3.6c-0.1,0-0.3,0-0.3-0.1c-0.1-0.1-0.1-0.2-0.1-0.3v-4.6
						c0-0.1,0-0.3-0.1-0.3c-0.1-0.1-0.2-0.1-0.3-0.1h-5.1c-0.1,0-0.3,0-0.3,0.1c-0.1,0.1-0.1,0.2-0.1,0.3v4.6c0,0.3-0.2,0.5-0.5,0.5
						h-3.6c-0.3,0-0.5-0.2-0.5-0.5V3.9c0-0.4,0.1-0.8,0.2-1.2c0.2-0.4,0.4-0.7,0.6-1c0.3-0.3,0.6-0.5,1-0.6c0.4-0.2,0.8-0.2,1.2-0.2
						H35.2L35.2,0.9z M33.6,9.5V5h-6.1v4.5H33.6L33.6,9.5z"/>
					<path id="Shape_2_" class="st2" d="M54.5,1.1c0.1,0.1,0.1,0.2,0.1,0.3V16c0,0.4-0.1,0.8-0.2,1.2c-0.2,0.4-0.4,0.7-0.6,1
						c-0.3,0.3-0.6,0.5-1,0.6C52.4,19,52,19,51.6,19h-7.8c-0.4,0-0.8-0.1-1.2-0.2c-0.4-0.2-0.7-0.4-1-0.6c-0.3-0.3-0.5-0.6-0.6-1
						c-0.2-0.4-0.2-0.8-0.2-1.2v-5.5c0-0.3,0.2-0.5,0.5-0.5h3.6c0.3,0,0.5,0.2,0.5,0.5v3.7c0,0.1,0,0.2,0.1,0.3s0.2,0.1,0.3,0.1h3.7
						c0.1,0,0.3,0,0.3-0.1c0.1-0.1,0.1-0.2,0.1-0.3V1.5c0-0.1,0-0.3,0.1-0.3c0.1-0.1,0.2-0.1,0.3-0.1h3.6C54.2,0.9,54.4,1,54.5,1.1
						L54.5,1.1z"/>
					<path id="Shape_3_" class="st2" d="M70.8,0.9c0.4,0,0.8,0.1,1.2,0.2c0.4,0.2,0.7,0.4,1,0.6c0.3,0.3,0.5,0.6,0.6,1
						s0.2,0.8,0.2,1.2v12c0,0.4-0.1,0.8-0.2,1.2c-0.2,0.4-0.4,0.7-0.6,1c-0.3,0.3-0.6,0.5-1,0.6c-0.4,0.2-0.8,0.2-1.2,0.2h-9.1
						c-0.4,0-0.8-0.1-1.2-0.2c-0.4-0.2-0.7-0.4-1-0.6c-0.3-0.3-0.5-0.6-0.6-1c-0.2-0.4-0.2-0.8-0.2-1.2v-12c0-0.4,0.1-0.8,0.2-1.2
						c0.1-0.4,0.4-0.7,0.6-1c0.3-0.3,0.6-0.5,1-0.6c0.4-0.2,0.8-0.2,1.2-0.2H70.8L70.8,0.9z M69.2,5.3h-6.1v9.3h6.1V5.3L69.2,5.3z"
						/>
					<path id="Shape_4_" class="st2" d="M93.6,18.6c0.1,0.1,0.1,0.2,0,0.3S93.5,19,93.3,19h-4.1c-0.1,0-0.3,0-0.4-0.1l-0.3-0.3
						l-2.7-4.9c0-0.1-0.1-0.1-0.2-0.1h-3.1c-0.1,0-0.1,0-0.1,0.1v4.8c0,0.3-0.2,0.5-0.5,0.5h-3.6c-0.3,0-0.5-0.2-0.5-0.5V1.4
						c0-0.3,0.2-0.5,0.5-0.5H90c0.4,0,0.8,0.1,1.2,0.2c0.4,0.2,0.7,0.4,1,0.6c0.3,0.3,0.5,0.6,0.6,1C93,3.1,93,3.5,93,3.9v6.8
						c0,0.7-0.2,1.2-0.6,1.8c-0.4,0.5-0.9,0.9-1.5,1.1h-0.1c-0.1,0-0.1,0.1-0.1,0.2v0.1L93.6,18.6L93.6,18.6z M88.5,5.1h-6.2v4.4
						h6.2V5.1L88.5,5.1z"/>
					<path id="Shape_5_" class="st2" d="M117.9,14.6c0.1,0,0.2,0,0.3,0.1c0.1,0.1,0.1,0.2,0.1,0.3v3.4c0,0.1,0,0.3-0.1,0.3
						c-0.1,0.1-0.2,0.1-0.3,0.1h-11.1c-0.3,0-0.5-0.2-0.5-0.5V1.2c0-0.3,0.2-0.5,0.5-0.5h3.6c0.3,0,0.5,0.2,0.5,0.5v12.7
						c0,0.1,0,0.2,0.1,0.3c0.1,0.1,0.2,0.1,0.3,0.1h6.6V14.6L117.9,14.6z"/>
					<path id="Shape_6_" class="st2" d="M134.6,1.1c0.1,0.1,0.1,0.2,0.1,0.3v1.5v0.8v1c0,0.1,0,0.2-0.1,0.3
						c-0.1,0.1-0.2,0.1-0.3,0.1h-1.8h-5.4h-1.4c-0.1,0-0.1,0-0.1,0.1V8c0,0.1,0,0.1,0.1,0.1h7.4c0.1,0,0.2,0,0.3,0.1
						c0.1,0.1,0.1,0.2,0.1,0.3v2.6c0,0.1,0,0.3-0.1,0.3c-0.1,0.1-0.2,0.1-0.3,0.1h-7.4c-0.1,0-0.1,0-0.1,0.1v1.3l0,0v1.5
						c0,0.1,0,0.1,0.1,0.1h1.1h5.8h1.7c0.1,0,0.3,0,0.3,0.1c0.1,0.1,0.1,0.2,0.1,0.3v1v1.3v0.9c0,0.1,0,0.3-0.1,0.3
						c-0.1,0.1-0.2,0.1-0.3,0.1h-1.5H123h-1.5c-0.3,0-0.5-0.2-0.5-0.5v-0.9v-15V0.9c0-0.1,0-0.3,0.1-0.3c0.1-0.1,0.2-0.1,0.3-0.1
						h1.9h10.1h0.8C134.4,0.9,134.5,1,134.6,1.1L134.6,1.1z"/>
					<path id="Shape_7_" class="st2" d="M151,0.9c0.4,0,0.8,0.1,1.2,0.2c0.4,0.2,0.7,0.4,1,0.6c0.3,0.3,0.5,0.6,0.6,1
						c0.1,0.4,0.2,0.8,0.2,1.2v14.6c0,0.1,0,0.3-0.1,0.3c-0.1,0.1-0.2,0.1-0.3,0.1h-3.7c-0.1,0-0.3,0-0.3-0.1
						c-0.1-0.1-0.1-0.2-0.1-0.3v-4.6c0-0.1,0-0.3-0.1-0.3c-0.1-0.1-0.2-0.1-0.3-0.1h-5.2c-0.1,0-0.3,0-0.3,0.1
						c-0.1,0.1-0.1,0.2-0.1,0.3v4.6c0,0.3-0.2,0.5-0.5,0.5h-3.6c-0.3,0-0.5-0.2-0.5-0.5V3.9c0-0.4,0.1-0.8,0.2-1.2
						c0.2-0.4,0.4-0.7,0.6-1c0.3-0.3,0.6-0.5,1-0.6c0.4-0.2,0.8-0.2,1.2-0.2H151L151,0.9z M149.4,9.5V5h-6.1v4.5H149.4L149.4,9.5z"
						/>
					<path id="Shape_8_" class="st2" d="M173.1,9.3c0.1,0.1,0.1,0.2,0.1,0.3V16c0,0.4-0.1,0.8-0.2,1.2c-0.2,0.4-0.4,0.7-0.6,1
						c-0.3,0.3-0.6,0.5-1,0.6c-0.4,0.2-0.8,0.2-1.2,0.2h-9.1c-0.4,0-0.8-0.1-1.2-0.2c-0.4-0.2-0.7-0.4-1-0.6c-0.3-0.3-0.5-0.6-0.6-1
						c-0.2-0.4-0.2-0.8-0.2-1.2V4c0-0.4,0.1-0.8,0.2-1.2c0.1-0.4,0.4-0.7,0.6-1c0.3-0.3,0.6-0.5,1-0.6c0.4-0.2,0.8-0.2,1.2-0.2h10.7
						c0.1,0,0.3,0,0.3,0.1c0.1,0.1,0.1,0.2,0.1,0.3v3.4c0,0.1,0,0.3-0.1,0.3c-0.1,0.1-0.2,0.1-0.3,0.1h-8.6c-0.1,0-0.3,0-0.3,0.1
						c-0.1,0.1-0.1,0.2-0.1,0.3V14c0,0.1,0,0.2,0.1,0.3c0.1,0.1,0.2,0.1,0.3,0.1h5.1c0.1,0,0.2,0,0.3-0.1c0.1-0.1,0.1-0.2,0.1-0.3
						V9.5c0-0.1,0-0.3,0.1-0.3c0.1-0.1,0.2-0.1,0.3-0.1h3.6C172.8,9.1,173,9.2,173.1,9.3L173.1,9.3z"/>
					<path id="Shape_9_" class="st2" d="M192.1,1.1c0.1,0.1,0.1,0.2,0.1,0.3V16c0,0.4-0.1,0.8-0.2,1.2c-0.2,0.4-0.4,0.7-0.6,1
						c-0.3,0.3-0.6,0.5-1,0.6c-0.4,0.2-0.8,0.2-1.2,0.2h-9.1c-0.4,0-0.8-0.1-1.2-0.2c-0.4-0.2-0.7-0.4-1-0.6c-0.3-0.3-0.5-0.6-0.6-1
						c-0.2-0.4-0.2-0.8-0.2-1.2V1.4c0-0.3,0.2-0.5,0.5-0.5h3.6c0.3,0,0.5,0.2,0.5,0.5v12.7c0,0.1,0,0.2,0.1,0.3
						c0.1,0.1,0.2,0.1,0.3,0.1h5.1c0.1,0,0.2,0,0.3-0.1c0.1-0.1,0.1-0.2,0.1-0.3V1.4c0-0.1,0-0.3,0.1-0.3C187.8,1,187.9,1,188,1h3.6
						C191.9,0.9,192,1,192.1,1.1L192.1,1.1z"/>
					<path id="Shape_10_" class="st2" d="M210,1.1c0.1,0.1,0.1,0.2,0.1,0.3v1.5v0.8v1c0,0.1,0,0.2-0.1,0.3s-0.2,0.1-0.3,0.1h-1.8
						h-5.4h-1.4c-0.1,0-0.1,0-0.1,0.1V8c0,0.1,0,0.1,0.1,0.1h7.4c0.1,0,0.2,0,0.3,0.1c0.1,0.1,0.1,0.2,0.1,0.3v2.6
						c0,0.1,0,0.3-0.1,0.3c-0.1,0.1-0.2,0.1-0.3,0.1h-7.4c-0.1,0-0.1,0-0.1,0.1v1.3l0,0v1.5c0,0.1,0,0.1,0.1,0.1h1.1h5.8h1.7
						c0.1,0,0.3,0,0.3,0.1c0.1,0.1,0.1,0.2,0.1,0.3v1v1.3v0.9c0,0.1,0,0.3-0.1,0.3c-0.1,0.1-0.2,0.1-0.3,0.1h-1.5h-9.8h-1.5
						c-0.3,0-0.5-0.2-0.5-0.5v-0.9v-15V0.9c0-0.1,0-0.3,0.1-0.3c0.1-0.1,0.2-0.1,0.3-0.1h1.9h10.1h0.8C209.8,0.9,209.9,1,210,1.1
						L210,1.1z"/>
					<path id="Shape_11_" class="st2" d="M237.7,0.9c0.1,0,0.3,0,0.3,0.1c0.1,0.1,0.1,0.2,0.1,0.3v17.1c0,0.1,0,0.3-0.1,0.3
						c-0.1,0.1-0.2,0.1-0.3,0.1h-3.6c-0.1,0-0.3,0-0.3-0.1c-0.1-0.1-0.1-0.2-0.1-0.3v-6c0-0.1,0-0.2-0.1-0.3
						c-0.1-0.1-0.2-0.1-0.3-0.1h-5.1c-0.1,0-0.3,0-0.3,0.1c-0.1,0.1-0.1,0.2-0.1,0.3v6c0,0.3-0.2,0.5-0.5,0.5h-3.6
						c-0.3,0-0.5-0.2-0.5-0.5V1.3c0-0.3,0.2-0.5,0.5-0.5h3.6c0.3,0,0.5,0.2,0.5,0.5v5.8c0,0.3,0.2,0.5,0.5,0.5h5.1
						c0.1,0,0.2,0,0.3-0.1c0.1-0.1,0.1-0.2,0.1-0.3V1.4c0-0.1,0-0.3,0.1-0.3C234,1,234.1,1,234.2,1h3.5V0.9L237.7,0.9L237.7,0.9z"/>
					<path id="Shape_12_" class="st2" d="M254.4,0.9c0.4,0,0.8,0.1,1.2,0.2c0.4,0.2,0.7,0.4,1,0.6c0.3,0.3,0.5,0.6,0.6,1
						c0.1,0.4,0.2,0.8,0.2,1.2v14.6c0,0.1,0,0.3-0.1,0.3c-0.1,0.1-0.2,0.1-0.3,0.1h-3.6c-0.1,0-0.3,0-0.3-0.1
						c-0.1-0.1-0.1-0.2-0.1-0.3v-4.6c0-0.1,0-0.3-0.1-0.3c-0.1-0.1-0.2-0.1-0.3-0.1h-5.1c-0.1,0-0.3,0-0.3,0.1
						c-0.1,0.1-0.1,0.2-0.1,0.3v4.6c0,0.3-0.2,0.5-0.5,0.5H243c-0.3,0-0.5-0.2-0.5-0.5V3.9c0-0.4,0.1-0.8,0.2-1.2
						c0.2-0.4,0.4-0.7,0.6-1c0.3-0.3,0.6-0.5,1-0.6c0.4-0.2,0.8-0.2,1.2-0.2H254.4L254.4,0.9z M252.9,9.5V5h-6.1v4.5H252.9
						L252.9,9.5z"/>
					<path id="Shape_13_" class="st2" d="M266.1,5.4C266,5.5,266,5.6,266,5.7v8.4c0,0.1,0,0.2,0.1,0.3c0.1,0.1,0.2,0.1,0.3,0.1h8.3
						c0.1,0,0.3,0,0.3,0.1c0.1,0.1,0.1,0.2,0.1,0.3v3.4c0,0.1,0,0.3-0.1,0.3c-0.1,0.1-0.2,0.1-0.3,0.1h-5.4h-4.4h-0.5
						c-0.4,0-0.8-0.1-1.2-0.2c-0.4-0.2-0.7-0.4-1-0.6c-0.3-0.3-0.5-0.6-0.6-1c-0.2-0.4-0.2-0.8-0.2-1.2v-0.5v-1.9v-6V5.6v-2
						c0-0.4,0.1-0.8,0.2-1.2c0.2-0.4,0.4-0.7,0.6-1c0.3-0.3,0.6-0.5,1-0.6c0.4-0.2,0.8-0.2,1.2-0.2h0.5h9.8c0.1,0,0.3,0,0.3,0.1
						c0.1,0.1,0.1,0.2,0.1,0.3v3.4c0,0.1,0,0.3-0.1,0.3c-0.1,0.1-0.2,0.1-0.3,0.1h-8.3C266.3,5.3,266.2,5.4,266.1,5.4L266.1,5.4z"/>
					<path id="Shape_14_" class="st2" d="M289.6,8.5c-0.1,0.1-0.1,0.1,0,0.2l6,9.9c0.1,0.1,0.1,0.2,0,0.3s-0.1,0.1-0.3,0.1H291
						c-0.1,0-0.3,0-0.4-0.1s-0.2-0.2-0.3-0.3l-3.9-7c-0.1-0.1-0.1-0.1-0.1,0l-2.1,2.3c-0.1,0.1-0.2,0.2-0.2,0.4
						c-0.1,0.2-0.1,0.3-0.1,0.5v3.8c0,0.3-0.2,0.5-0.5,0.5h-3.5c-0.3,0-0.5-0.2-0.5-0.5V1.5c0-0.3,0.2-0.5,0.5-0.5h3.6
						c0.3,0,0.5,0.2,0.5,0.5v7.7l6.7-7.8c0.1-0.1,0.2-0.2,0.4-0.3c0.2-0.1,0.3-0.1,0.4-0.1h4.3c0.1,0,0.2,0,0.2,0.1s0,0.2-0.1,0.3
						L289.6,8.5L289.6,8.5z"/>
					<path id="Shape_15_" class="st2" d="M303.5,18.5c0,0.3-0.2,0.5-0.5,0.5h-3.6c-0.3,0-0.5-0.2-0.5-0.5V1.4c0-0.3,0.2-0.5,0.5-0.5
						h3.6c0.3,0,0.5,0.2,0.5,0.5V18.5L303.5,18.5z"/>
					<path id="Shape_16_" class="st2" d="M320.9,1.2c0.4,0.2,0.7,0.4,1,0.6c0.3,0.3,0.5,0.6,0.6,1c0.2,0.4,0.2,0.8,0.2,1.2v14.6
						c0,0.1,0,0.3-0.1,0.3c-0.1,0.1-0.2,0.1-0.3,0.1h-3.6c-0.1,0-0.2,0-0.3-0.1s-0.1-0.2-0.1-0.3V5.9c0-0.1,0-0.2-0.1-0.3
						c-0.1-0.1-0.2-0.1-0.3-0.1h-5.1c-0.1,0-0.3,0-0.3,0.1s-0.1,0.2-0.1,0.3v12.7c0,0.3-0.2,0.5-0.5,0.5h-3.6
						c-0.3,0-0.5-0.2-0.5-0.5V1.5c0-0.3,0.2-0.5,0.5-0.5H320C320.2,0.9,320.6,1,320.9,1.2L320.9,1.2z"/>
					<path id="Shape_17_" class="st2" d="M341.8,9.3c0.1,0.1,0.1,0.2,0.1,0.3V16c0,0.4-0.1,0.8-0.2,1.2c-0.2,0.4-0.4,0.7-0.6,1
						c-0.3,0.3-0.6,0.5-1,0.6c-0.4,0.2-0.8,0.2-1.2,0.2h-9.1c-0.4,0-0.8-0.1-1.2-0.2c-0.4-0.2-0.7-0.4-1-0.6c-0.3-0.3-0.5-0.6-0.6-1
						c-0.2-0.4-0.2-0.8-0.2-1.2V4c0-0.4,0.1-0.8,0.2-1.2s0.4-0.7,0.6-1c0.3-0.3,0.6-0.5,1-0.6C329,1,329.4,1,329.8,1h10.7
						c0.1,0,0.3,0,0.3,0.1c0.1,0.1,0.1,0.2,0.1,0.3v3.4c0,0.1,0,0.3-0.1,0.3c-0.1,0.1-0.2,0.1-0.3,0.1h-8.6c-0.1,0-0.3,0-0.3,0.1
						c-0.1,0.1-0.1,0.2-0.1,0.3V14c0,0.1,0,0.2,0.1,0.3c0.1,0.1,0.2,0.1,0.3,0.1h5.1c0.1,0,0.2,0,0.3-0.1c0.1-0.1,0.1-0.2,0.1-0.3
						V9.5c0-0.1,0-0.3,0.1-0.3c0.1-0.1,0.2-0.1,0.3-0.1h3.6C341.6,9.1,341.7,9.2,341.8,9.3L341.8,9.3z"/>
				</g>
				<g id="Group_1_">
					<path id="Shape_18_" class="st3" d="M109.8,2.5c2.3,1,4.3,2.4,6,4.1c1.7,1.7,3,3.7,4.1,6c1,2.3,1.5,4.8,1.5,7.4v94.8
						c0,0.9-0.3,1.6-0.9,2.2s-1.3,0.9-2.2,0.9H95.6c-0.9,0-1.6-0.3-2.1-0.9s-0.8-1.3-0.8-2.2V28.6H74.4v86.2c0,0.9-0.3,1.6-0.8,2.2
						s-1.3,0.9-2.1,0.9H50.9c-0.9,0-1.6-0.3-2.2-0.9c-0.6-0.6-0.9-1.3-0.9-2.2V28.6H29.5v86.2c0,2.1-1,3.1-3.1,3.1H3.9
						c-2.1,0-3.1-1-3.1-3.1V4.1C0.8,2,1.8,1,3.9,1h98.4C105,1,107.4,1.5,109.8,2.5L109.8,2.5z"/>
					<path id="Shape_19_" class="st4" d="M109.8,2.5c2.3,1,4.3,2.4,6,4.1c1.7,1.7,3,3.7,4.1,6c1,2.3,1.5,4.8,1.5,7.4v8.4l-28.7,0.2
						H74.4H47.9H29.6L0.9,28.4V4c0-2.1,1-3.1,3.1-3.1h98.4C105,1,107.4,1.5,109.8,2.5L109.8,2.5z"/>
				</g>
				<g id="Group_2_" transform="translate(139.000000, 1.000000)">
					<path id="Shape_20_" class="st5" d="M81.3,88.5c0.9,0,1.7,0.3,2.2,0.9c0.6,0.6,0.9,1.4,0.9,2.3v22.1c0,0.9-0.3,1.6-0.9,2.3
						c-0.6,0.6-1.3,0.9-2.2,0.9H3.6c-2.2,0-3.3-1.1-3.3-3.2V3.2C0.3,1.1,1.4,0,3.6,0h23.8c2.2,0,3.3,1.1,3.3,3.2v82.4
						c0,0.9,0.3,1.6,1,2.2c0.6,0.6,1.4,0.8,2.3,0.8L81.3,88.5L81.3,88.5L81.3,88.5L81.3,88.5z"/>
					<path id="Shape_21_" class="st6" d="M30.5,116.9H3.6c-2.2,0-3.3-1.1-3.3-3.2V3.2C0.3,1.1,1.4,0,3.6,0h23.8
						c2.2,0,3.3,1.1,3.3,3.2v82.4C30.7,86.4,30.5,116.9,30.5,116.9L30.5,116.9z"/>
				</g>
				<g id="Group_3_" transform="translate(241.000000, 1.000000)">
					<path id="Shape_22_" class="st7" d="M98.7,0c0.9,0,1.7,0.3,2.3,0.9s1,1.4,1,2.3v110.9c0,0.9-0.3,1.6-1,2.3
						c-0.6,0.6-1.4,0.9-2.3,0.9H74.5c-0.9,0-1.7-0.3-2.3-0.9c-0.6-0.6-1-1.4-1-2.3V75.4c0-0.9-0.3-1.6-0.9-2.2
						c-0.6-0.6-1.3-0.8-2.3-0.8H34.1c-0.9,0-1.7,0.3-2.3,0.8c-0.6,0.6-1,1.3-1,2.2v38.7c0,2.1-1.1,3.2-3.3,3.2h-24
						c-2.2,0-3.3-1.1-3.3-3.2V3.2C0.2,1.1,1.3,0,3.5,0h24c2.2,0,3.3,1.1,3.3,3.2v37.5c0,2.1,1.1,3.2,3.3,3.2H68
						c0.9,0,1.7-0.3,2.3-0.9c0.6-0.6,0.9-1.4,0.9-2.3V3.2c0-0.9,0.3-1.6,1-2.3C72.8,0.3,73.6,0,74.5,0H98.7L98.7,0z"/>
					<path id="Shape_23_" class="st8" d="M30.9,75.4v38.7c0,2.1-1.1,3.2-3.3,3.2h-24c-2.2,0-3.3-1.1-3.3-3.2V3.2
						C0.3,1.1,1.4,0,3.6,0h24c2.2,0,3.3,1.1,3.3,3.2v37.5V75.4L30.9,75.4z"/>
					<path id="Shape_24_" class="st8" d="M98.7,0c0.9,0,1.7,0.3,2.3,0.9s1,1.4,1,2.3v110.9c0,0.9-0.3,1.6-1,2.3
						c-0.6,0.6-1.4,0.9-2.3,0.9H74.5c-0.9,0-1.7-0.3-2.3-0.9c-0.6-0.6-1-1.4-1-2.3V75.4V40.7V3.2c0-0.9,0.3-1.6,1-2.3
						C72.8,0.3,73.6,0,74.5,0H98.7L98.7,0z"/>
				</g>
			</g>
		</g>
	</g>
</g>
<g>
	<path d="M154.5,112.1c7.9,1.2,7.9,1.2,8,8.4c0,0.8-0.3,1.9,0.1,2.5c1.1,1.6,2.5,2.9,3.7,4.4c1.3-1.4,3.3-2.7,3.9-4.4
		c0.7-2.1-0.2-4.7,0.3-6.9c0.3-1.3,2-3.1,3-3.1c1.1,0,2.9,1.7,3.3,2.9c0.5,2.2-0.3,4.8,0.3,6.9c0.5,1.7,2.4,3.1,3.7,4.6
		c1.3-1.4,3.1-2.7,3.7-4.3c0.7-1.8,0.3-3.9,0.3-5.9c-0.1-3,0.9-4.8,4.3-4.4c3,0.4,4.2-0.9,4.1-4c-0.1-8.3,0.1-16.6-0.2-25
		c0-1.3-2.1-3.5-3.3-3.6c-10.8-0.3-21.6-0.2-32.4,0c-1,0-2.8,1.5-2.8,2.4C154.5,92.4,154.5,102.2,154.5,112.1z M205.6,51.7
		c0.4-0.5,0.7-0.9,1.1-1.4c-0.8-0.3-1.7-0.4-2.4-0.9c-17-12.1-35.1-13.7-53.7-4.9c-15.1,7.1-24,19.6-27.5,35.9
		c-0.4,1.7-0.4,3.9,0.3,5.4c3.9,8.2,8.1,16.2,12.2,24.2c0.4-0.2,0.9-0.4,1.3-0.7c-0.5-1.2-0.9-2.4-1.4-3.6
		c-8.6-22.2,1.9-46.3,24.3-53.9c6.8-2.3,14.7-2.1,22.1-2C189.9,49.9,197.8,51.1,205.6,51.7z M183.6,60.9c-5.8,0-11.9,0-18.8,0
		c-0.3-0.4-1.3-1.7-2.3-3c-0.1,0.1-0.2,0.2-0.3,0.3c0.6,1.5,1.2,2.9,1.9,4.5c-4.6,3.7-8.7,7.4-9.1,14c12.7,0,24.9,0,37.1,0
		c0.4-0.4,0.8-0.8,1.2-1.3C190,70.5,186.7,65.6,183.6,60.9z M225.1,90.4c-1.3-5.9-2.1-12.1-4-17.8c-5-15.2-15.1-21.9-29.9-20.2
		C206.6,61.6,215.5,75.9,225.1,90.4z M143.9,93.1C144,93.1,144,93.1,143.9,93.1c0,2.8-0.4,5.7,0.2,8.4c0.3,1.5,2.3,3.6,3.6,3.6
		c1.2,0.1,3.6-2.1,3.7-3.4c0.4-5.8,0.5-11.6,0-17.4c-0.1-1.5-2.5-2.8-3.8-4.2c-1.2,1.5-3.2,2.9-3.6,4.6
		C143.5,87.4,143.9,90.3,143.9,93.1z M195.9,93.1c0,2.8-0.4,5.7,0.2,8.4c0.3,1.5,2.3,2.7,3.5,4c1.3-1.2,3.7-2.4,3.8-3.7
		c0.4-5.9,0.3-11.9-0.1-17.9c-0.1-1.3-2.5-2.5-3.8-3.7c-1.2,1.3-3.1,2.5-3.4,4C195.5,87,195.9,90.1,195.9,93.1z M127.3,62.7
		c-1-3.2-3.2-6.4-2.5-8.5c2.3-6.4,6.4-1,10,0c-2-4.9-4.1-6.2-7.3-4.9c-3.5,1.4-6.6,6.6-5.3,9.6C123.2,61.6,125.1,63.4,127.3,62.7z
		 M149.1,38.4c3.6-0.2,6.9-0.4,10.6-0.7c-0.5-1.9-0.7-5.9-1.7-6.1c-2.5-0.6-5.3,0.6-8,1.2c-1.2,0.3-2.2,1-3.4,1.5
		c0.1,0.1,0.1,0.3,0.2,0.4c3.5-0.8,7-1.6,10.4-2.3c0.2,0.6,0.3,1.2,0.5,1.8C155,35.6,152.1,36.9,149.1,38.4z M203.6,46
		c0.3-0.4,0.5-0.7,0.8-1.1c-1.5-0.9-3.3-1.6-4.5-2.9c-1.1-1.2-1.6-2.9-2.3-4.4c1.8-0.3,3.6-1,5.3-0.7c1.9,0.4,3.7,1.7,5.5,2.7
		c-2.2-2.4-4.8-4.1-7.7-4.8c-1.5-0.4-4,0.7-4.9,1.9c-0.6,0.8,0.1,3.6,1.1,4.6C198.8,43.2,201.4,44.4,203.6,46z M213,41.4
		c-0.2,0.2-0.5,0.5-0.7,0.7c1.9,2,4,3.8,5.6,6.1c0.6,0.9,0.6,3.2-0.1,3.9c-0.7,0.7-2.9,0.7-3.9,0.1c-2.1-1.1-3.8-2.8-5.7-4.3
		c1.6,2.5,3.7,4.6,6.1,5.9c1.3,0.7,3.9,0.6,4.9-0.2c0.9-0.8,1-3.6,0.3-4.7C217.7,46.1,215.2,43.8,213,41.4z M140.4,48.1
		c2.2-1.9,6.5-3.6,4.1-8.2c-0.6-1.2-4.4-0.8-6.7-1.2c0,0.3,0,0.6,0.1,0.8c1.9,0.6,3.7,1.1,5.6,1.7C142.4,43.6,141.4,45.9,140.4,48.1
		z M218.6,61.2c2.6-1.5,5.2-3,7.8-4.6C224.2,53.9,220.7,55.6,218.6,61.2z"/>
	<path class="st9" d="M154.5,112.1c0-10-0.1-19.8,0.1-29.5c0-0.9,1.8-2.4,2.8-2.4c10.8-0.2,21.6-0.2,32.4,0c1.2,0,3.2,2.3,3.3,3.6
		c0.3,8.3,0,16.6,0.2,25c0.1,3.1-1.1,4.3-4.1,4c-3.4-0.4-4.4,1.4-4.3,4.4c0.1,2,0.4,4.2-0.3,5.9c-0.6,1.7-2.4,2.9-3.7,4.3
		c-1.3-1.5-3.2-2.8-3.7-4.6c-0.7-2.1,0.2-4.7-0.3-6.9c-0.3-1.2-2.1-2.9-3.3-2.9c-1.1,0-2.7,1.8-3,3.1c-0.5,2.2,0.3,4.8-0.3,6.9
		c-0.6,1.7-2.5,2.9-3.9,4.4c-1.3-1.5-2.6-2.8-3.7-4.4c-0.4-0.6-0.1-1.6-0.1-2.5C162.4,113.3,162.4,113.3,154.5,112.1z"/>
	<path class="st9" d="M205.6,51.7c-7.9-0.7-15.8-1.8-23.6-1.9c-7.4,0-15.3-0.3-22.1,2c-22.5,7.6-33,31.7-24.3,53.9
		c0.5,1.2,0.9,2.4,1.4,3.6c-0.4,0.2-0.9,0.4-1.3,0.7c-4.1-8.1-8.3-16.1-12.2-24.2c-0.7-1.5-0.6-3.7-0.3-5.4
		c3.5-16.2,12.4-28.8,27.5-35.9c18.6-8.8,36.8-7.2,53.7,4.9c0.7,0.5,1.6,0.6,2.4,0.9C206.4,50.8,206,51.3,205.6,51.7z"/>
	<path class="st9" d="M183.6,60.9c3.1,4.6,6.5,9.6,9.8,14.5c-0.4,0.4-0.8,0.8-1.2,1.3c-12.2,0-24.4,0-37.1,0
		c0.4-6.5,4.5-10.2,9.1-14c-0.6-1.5-1.3-3-1.9-4.5c0.1-0.1,0.2-0.2,0.3-0.3c1,1.3,1.9,2.5,2.3,3C171.7,60.9,177.8,60.9,183.6,60.9z"
		/>
	<path class="st9" d="M225.1,90.4c-9.6-14.5-18.5-28.9-33.9-38c14.8-1.7,24.8,4.9,29.9,20.2C223,78.4,223.8,84.5,225.1,90.4z"/>
	<path class="st9" d="M143.9,93.1c0-2.8-0.4-5.7,0.2-8.4c0.4-1.7,2.3-3.1,3.6-4.6c1.3,1.4,3.7,2.7,3.8,4.2c0.4,5.8,0.4,11.6,0,17.4
		c-0.1,1.3-2.4,3.5-3.7,3.4c-1.3-0.1-3.3-2.1-3.6-3.6C143.6,98.9,144,96,143.9,93.1C144,93.1,144,93.1,143.9,93.1z"/>
	<path class="st9" d="M195.9,93.1c0-3-0.4-6,0.2-8.9c0.3-1.5,2.2-2.7,3.4-4c1.3,1.2,3.7,2.4,3.8,3.7c0.5,5.9,0.5,11.9,0.1,17.9
		c-0.1,1.3-2.5,2.5-3.8,3.7c-1.2-1.3-3.2-2.5-3.5-4C195.5,98.8,195.9,95.9,195.9,93.1z"/>
	<path class="st9" d="M127.3,62.7c-2.2,0.6-4.1-1.2-5.1-3.7c-1.2-3,1.8-8.2,5.3-9.6c3.2-1.3,5.3,0,7.3,4.9c-3.6-1-7.7-6.4-10,0
		C124.1,56.4,126.3,59.6,127.3,62.7z"/>
	<path class="st9" d="M149.1,38.4c3-1.4,5.8-2.8,8.7-4.2c-0.2-0.6-0.3-1.2-0.5-1.8c-3.5,0.8-7,1.6-10.4,2.3
		c-0.1-0.1-0.1-0.3-0.2-0.4c1.1-0.5,2.2-1.2,3.4-1.5c2.7-0.6,5.5-1.8,8-1.2c1,0.2,1.2,4.2,1.7,6.1C156,38,152.7,38.2,149.1,38.4z"/>
	<path class="st9" d="M203.6,46c-2.3-1.5-4.8-2.8-6.8-4.7c-1-1-1.7-3.8-1.1-4.6c1-1.2,3.5-2.3,4.9-1.9c2.9,0.7,5.5,2.5,7.7,4.8
		c-1.8-0.9-3.6-2.3-5.5-2.7c-1.7-0.3-3.5,0.4-5.3,0.7c0.7,1.5,1.2,3.2,2.3,4.4c1.2,1.3,2.9,1.9,4.5,2.9
		C204.2,45.2,203.9,45.6,203.6,46z"/>
	<path class="st9" d="M213,41.4c2.2,2.5,4.7,4.7,6.5,7.4c0.7,1.1,0.6,3.9-0.3,4.7c-1,0.9-3.6,0.9-4.9,0.2c-2.5-1.3-4.5-3.4-6.1-5.9
		c1.9,1.5,3.6,3.2,5.7,4.3c1.1,0.6,3.2,0.6,3.9-0.1c0.7-0.7,0.7-3,0.1-3.9c-1.6-2.2-3.7-4.1-5.6-6.1C212.5,41.9,212.8,41.6,213,41.4
		z"/>
	<path class="st9" d="M140.4,48.1c1-2.2,2-4.5,3.1-6.9c-1.9-0.6-3.7-1.1-5.6-1.7c0-0.3,0-0.6-0.1-0.8c2.3,0.3,6-0.1,6.7,1.2
		C146.9,44.5,142.6,46.2,140.4,48.1z"/>
	<path class="st9" d="M218.6,61.2c2.1-5.6,5.6-7.3,7.8-4.6C223.8,58.2,221.2,59.7,218.6,61.2z"/>
</g>
</svg>
